<?xml version="1.0" encoding="UTF-8" standalone="no"?>
<svg width="15px" height="17px" viewBox="0 0 15 17" version="1.1" xmlns="http://www.w3.org/2000/svg" xmlns:xlink="http://www.w3.org/1999/xlink" xmlns:sketch="http://www.bohemiancoding.com/sketch/ns">
    <!-- Generator: Sketch 3.1.1 (8761) - http://www.bohemiancoding.com/sketch -->
    <title>logout</title>
    <desc>Created with Sketch.</desc>
    <defs></defs>
    <g id="Symbols" stroke="none" stroke-width="1" fill="none" fill-rule="evenodd" sketch:type="MSPage">
        <g id="Notes" sketch:type="MSArtboardGroup" transform="translate(-162.000000, -864.000000)" fill="#4A4A4A">
            <g id="logout" sketch:type="MSLayerGroup" transform="translate(162.000000, 864.000000)">
                <path d="M10.8461538,8.06410256 L7.15384615,8.06410256 L7.15384615,5.50102564 L10.8461538,5.50102564 L10.8461538,4.21948718 L15,6.7825641 L10.8461538,9.34564103 L10.8461538,8.06410256 L10.8461538,8.06410256 Z" id="Rectangle-88" sketch:type="MSShapeGroup"></path>
                <path d="M5.38723875,13.6 L7.50279461,13.6 C8.68471851,13.6 9.64285714,12.5777896 9.64285714,11.3236658 L9.64285714,9.63333333 L9.64285714,9.63333333 L8.57142857,9.63333333 L8.57142857,11.3236658 C8.57142857,11.9545645 8.09042989,12.4666667 7.50279461,12.4666667 L5.38723875,12.4666667 L5.38723875,7.54669985 C5.38723875,6.44763363 4.85099431,5.10514152 4.19163586,4.54995546 L1.19560288,2.02726729 C1.16768477,2.00375998 1.13999015,1.98203833 1.11255004,1.96207625 C1.24077169,1.48380722 1.65392699,1.13333333 2.14006254,1.13333333 L7.50279461,1.13333333 C8.09066123,1.13333333 8.57142857,1.64443233 8.57142857,2.27633423 L8.57142857,3.96666667 L9.64285714,3.96666667 L9.64285714,2.27633423 C9.64285714,1.01914955 8.68300949,0 7.50279461,0 L2.14006254,0 C0.958138634,0 0,1.02221041 0,2.27633423 L0,11.3236658 C0,11.7447615 0.107687635,12.1391515 0.295273965,12.4774823 C0.51458906,13.0796262 0.836875324,13.614718 1.19560288,13.91677 L4.19163586,16.4394581 C4.8519491,16.9954481 5.38723875,16.552522 5.38723875,15.4561317 L5.38723875,13.6 L5.38723875,13.6 Z" id="Rectangle-87" sketch:type="MSShapeGroup"></path>
            </g>
        </g>
    </g>
</svg>