<?xml version="1.0" encoding="UTF-8" standalone="no"?>
<svg width="14px" height="15px" viewBox="0 0 14 15" version="1.1" xmlns="http://www.w3.org/2000/svg" xmlns:xlink="http://www.w3.org/1999/xlink" xmlns:sketch="http://www.bohemiancoding.com/sketch/ns">
    <!-- Generator: Sketch 3.0.4 (8054) - http://www.bohemiancoding.com/sketch -->
    <title>Logout Icon</title>
    <desc>Created with Sketch.</desc>
    <defs>
        <linearGradient x1="0%" y1="-1.11022302e-14%" x2="100%" y2="1.11022302e-14%" id="linearGradient-1">
            <stop stop-color="#757F9A" offset="0%"></stop>
            <stop stop-color="#D7DDE8" offset="100%"></stop>
        </linearGradient>
        <filter x="-50%" y="-50%" width="200%" height="200%" filterUnits="objectBoundingBox" id="filter-2">
            <feOffset dx="0" dy="-1" in="SourceAlpha" result="shadowOffsetInner1"></feOffset>
            <feGaussianBlur stdDeviation="1" in="shadowOffsetInner1" result="shadowBlurInner1"></feGaussianBlur>
            <feComposite in="shadowBlurInner1" in2="SourceAlpha" operator="arithmetic" k2="-1" k3="1" result="shadowInnerInner1"></feComposite>
            <feColorMatrix values="0 0 0 0 0.640040391   0 0 0 0 0.640040391   0 0 0 0 0.640040391  0 0 0 0.35 0" in="shadowInnerInner1" type="matrix" result="shadowMatrixInner1"></feColorMatrix>
            <feMerge>
                <feMergeNode in="SourceGraphic"></feMergeNode>
                <feMergeNode in="shadowMatrixInner1"></feMergeNode>
            </feMerge>
        </filter>
        <filter x="-50%" y="-50%" width="200%" height="200%" filterUnits="objectBoundingBox" id="filter-3">
            <feOffset dx="0" dy="2" in="SourceAlpha" result="shadowOffsetOuter1"></feOffset>
            <feGaussianBlur stdDeviation="1" in="shadowOffsetOuter1" result="shadowBlurOuter1"></feGaussianBlur>
            <feColorMatrix values="0 0 0 0 0.552242772   0 0 0 0 0.552242772   0 0 0 0 0.552242772  0 0 0 0.35 0" in="shadowBlurOuter1" type="matrix" result="shadowMatrixOuter1"></feColorMatrix>
            <feMerge>
                <feMergeNode in="shadowMatrixOuter1"></feMergeNode>
                <feMergeNode in="SourceGraphic"></feMergeNode>
            </feMerge>
        </filter>
    </defs>
    <g id="Welcome" stroke="none" stroke-width="1" fill="none" fill-rule="evenodd" sketch:type="MSPage">
        <g id="Tablet-Portrait-6" sketch:type="MSArtboardGroup" transform="translate(-747.000000, -12.000000)">
            <rect id="Rectangle-89" fill="url(#linearGradient-1)" filter="url(#filter-2)" sketch:type="MSShapeGroup" x="0" y="3" width="768" height="70"></rect>
            <rect id="Rectangle-72" fill="#FFFFFF" filter="url(#filter-3)" sketch:type="MSShapeGroup" x="0" y="0" width="768" height="35"></rect>
            <g id="Logout-Icon" sketch:type="MSLayerGroup" transform="translate(747.000000, 12.000000)" fill="#4A4A4A">
                <path d="M10.1230769,7.11538462 L6.67692308,7.11538462 L6.67692308,4.85384615 L10.1230769,4.85384615 L10.1230769,3.72307692 L14,5.98461538 L10.1230769,8.24615385 L10.1230769,7.11538462 Z" id="Rectangle-88" sketch:type="MSShapeGroup"></path>
                <path d="M5.0280895,12 L7.0026083,12 C8.10573727,12 9,11.0980496 9,9.9914698 L9,8.5 L8,8.5 L8,9.9914698 C8,10.5481451 7.5510679,11 7.0026083,11 L5.0280895,11 L5.0280895,6.65885281 C5.0280895,5.6890885 4.52759469,4.50453664 3.91219347,4.01466658 L1.11589603,1.78876526 C1.08983912,1.76802351 1.06399081,1.74885735 1.03838003,1.73124375 C1.15805357,1.30924166 1.54366519,1 1.9973917,1 L7.0026083,1 C7.55128381,1 8,1.4509697 8,2.0085302 L8,3.5 L9,3.5 L9,2.0085302 C9,0.899249601 8.10414219,0 7.0026083,0 L1.9973917,0 C0.894262725,0 0,0.901950359 0,2.0085302 L0,9.9914698 C0,10.3630249 0.100508459,10.711016 0.275589034,11.0095432 C0.480283123,11.5408467 0.781083635,12.0129864 1.11589603,12.2795029 L3.91219347,14.5054042 C4.52848583,14.9959836 5.0280895,14.6051665 5.0280895,13.6377632 L5.0280895,12 Z" id="Rectangle-87" sketch:type="MSShapeGroup"></path>
            </g>
        </g>
    </g>
</svg>