<?xml version="1.0" encoding="UTF-8" standalone="no"?>
<svg width="14px" height="14px" viewBox="0 0 14 14" version="1.1" xmlns="http://www.w3.org/2000/svg" xmlns:xlink="http://www.w3.org/1999/xlink" xmlns:sketch="http://www.bohemiancoding.com/sketch/ns">
    <!-- Generator: Sketch 3.1.1 (8761) - http://www.bohemiancoding.com/sketch -->
    <title>x-icon</title>
    <desc>Created with Sketch.</desc>
    <defs></defs>
    <g id="Symbols" stroke="none" stroke-width="1" fill="none" fill-rule="evenodd" sketch:type="MSPage">
        <g id="Notes" sketch:type="MSArtboardGroup" transform="translate(-140.000000, -887.000000)" fill="#4A4A4A">
            <path d="M147,895.320586 L142.586633,899.733953 C142.094401,900.226185 141.300971,900.228159 140.812816,899.740003 C140.321257,899.248445 140.327369,898.457683 140.818866,897.966186 L145.232233,893.552819 L140.818866,889.139452 C140.326634,888.64722 140.32466,887.85379 140.812816,887.365635 C141.304374,886.874076 142.095136,886.880188 142.586633,887.371685 L147,891.785052 L151.413367,887.371685 C151.905599,886.879453 152.699029,886.877479 153.187184,887.365635 C153.678743,887.857193 153.672631,888.647955 153.181134,889.139452 L148.767767,893.552819 L153.181134,897.966186 C153.673366,898.458418 153.67534,899.251848 153.187184,899.740003 C152.695626,900.231562 151.904864,900.22545 151.413367,899.733953 L147,895.320586 L147,895.320586 Z" id="x-icon" sketch:type="MSShapeGroup"></path>
        </g>
    </g>
</svg>